<svg viewBox="0 0 32 32" xmlns="http://www.w3.org/2000/svg">
  <circle cx="16" cy="16" r="16" fill="#0d1b2a"/>
  <g fill="#e53935">
    <!-- One blade: tip at upper-right, sweeps CW outward (CCW hurricane) -->
    <path d="M 22 4 C 30 2 31 12 27 18 C 23 24 17 24 16 20 C 15 17 17 14 20 13 C 23 12 22 7 22 4 Z"/>
    <path transform="rotate(120 16 16)"
          d="M 22 4 C 30 2 31 12 27 18 C 23 24 17 24 16 20 C 15 17 17 14 20 13 C 23 12 22 7 22 4 Z"/>
    <path transform="rotate(240 16 16)"
          d="M 22 4 C 30 2 31 12 27 18 C 23 24 17 24 16 20 C 15 17 17 14 20 13 C 23 12 22 7 22 4 Z"/>
  </g>
  <!-- Eye: dark hole at center -->
  <circle cx="16" cy="16" r="3" fill="#0d1b2a"/>
</svg>
